#Comment line ignore any data following # character 
#Hierarchical Translation and Rotation (.htr) file 
[Header]	
#Header keywords are followed by a single value 
FileType HTR		#Single word string
DataType HTRS		#Translation followed by rotation and scale data
FileVersion 1		#integer
NumSegments 84		#integer
NumFrames 2		#integer
DataFrameRate 30		#integer, data frame rate in this file
EulerRotationOrder ZYX
CalibrationUnits mm
RotationUnits Degrees
GlobalAxisofGravity Y
BoneLengthAxis Y
ScaleFactor 1.00
[SegmentNames&Hierarchy]
#CHILD	PARENT
MASTER GLOBAL
root MASTER
chest root
L_mid_tent01 root
R_mid_tent01 root
spine01 root
Bip01_Neck chest
L_humerus chest
R_humerus chest
weapon_bone chest
Bip01_Head Bip01_Neck
eye_left_bone Bip01_Head
eye_right_bone Bip01_Head
L_forearm L_humerus
L_front_hand L_forearm
L_weapon_bone L_forearm
L_front_hand01_01 L_front_hand
L_front_hand02_01 L_front_hand
L_front_hand03_01 L_front_hand
L_front_hand01_02 L_front_hand01_01
L_front_hand02_02 L_front_hand02_01
L_front_hand03_02 L_front_hand03_01
R_forearm R_humerus
R_front_hand R_forearm
R_weapon_bone R_forearm
R_front_hand01_01 R_front_hand
R_front_hand02_01 R_front_hand
R_front_hand03_01 R_front_hand
R_front_hand01_02 R_front_hand01_01
R_front_hand02_02 R_front_hand02_01
R_front_hand03_02 R_front_hand03_01
null_rope01_connect L_mid_tent01
Rope1_Seg01 null_rope01_connect
Rope1_Seg02 Rope1_Seg01
Rope1_Seg03 Rope1_Seg02
Rope1_Seg04 Rope1_Seg03
Rope1_Seg05 Rope1_Seg04
Rope1_Seg06 Rope1_Seg05
Rope1_Seg07 Rope1_Seg06
Rope1_Seg09 Rope1_Seg07
L_mid_hand01 Rope1_Seg09
L_mid_hand02 Rope1_Seg09
L_mid_hand03 Rope1_Seg09
null_rope02_connect R_mid_tent01
Rope2_Seg01 null_rope02_connect
Rope2_Seg02 Rope2_Seg01
Rope2_Seg03 Rope2_Seg02
Rope2_Seg04 Rope2_Seg03
Rope2_Seg05 Rope2_Seg04
Rope2_Seg06 Rope2_Seg05
Rope2_Seg07 Rope2_Seg06
Rope2_Seg09 Rope2_Seg07
R_mid_hand01 Rope2_Seg09
R_mid_hand02 Rope2_Seg09
R_mid_hand03 Rope2_Seg09
spine02 spine01
spine03 spine02
pelvis spine03
null_rope03_connect pelvis
null_rope04_connect pelvis
Rope3_Seg01 null_rope03_connect
Rope3_Seg02 Rope3_Seg01
Rope3_Seg03 Rope3_Seg02
Rope3_Seg04 Rope3_Seg03
Rope3_Seg05 Rope3_Seg04
Rope3_Seg06 Rope3_Seg05
Rope3_Seg07 Rope3_Seg06
Rope3_Seg08 Rope3_Seg07
Rope3_Seg09 Rope3_Seg08
R_rear_hand01 Rope3_Seg09
R_rear_hand02 Rope3_Seg09
R_rear_hand03 Rope3_Seg09
Rope4_Seg01 null_rope04_connect
Rope4_Seg02 Rope4_Seg01
Rope4_Seg03 Rope4_Seg02
Rope4_Seg04 Rope4_Seg03
Rope4_Seg05 Rope4_Seg04
Rope4_Seg06 Rope4_Seg05
Rope4_Seg07 Rope4_Seg06
Rope4_Seg08 Rope4_Seg07
Rope4_Seg09 Rope4_Seg08
L_rear_hand01 Rope4_Seg09
L_rear_hand02 Rope4_Seg09
L_rear_hand03 Rope4_Seg09
[BasePosition]
#SegmentName Tx, Ty, Tz, Rx, Ry, Rz, BoneLength
MASTER 0.000000 0.000000 0.000000 -90.000000 0.000000 0.000000 10.000000 
root 0.000000 0.000000 0.000000 0.000000 0.000000 0.000000 10.000000 
chest 0.000000 0.000000 0.000000 0.000000 0.000000 0.000000 10.000000 
L_mid_tent01 0.000000 0.000000 0.000000 0.000000 0.000000 0.000000 10.000000 
R_mid_tent01 0.000000 0.000000 0.000000 0.000000 0.000000 0.000000 10.000000 
spine01 0.000000 0.000000 0.000000 0.000000 0.000000 0.000000 10.000000 
Bip01_Neck 0.000000 0.000000 0.000000 0.000000 0.000000 0.000000 10.000000 
L_humerus 0.000000 0.000000 0.000000 0.000000 0.000000 0.000000 10.000000 
R_humerus 0.000000 0.000000 0.000000 0.000000 0.000000 0.000000 10.000000 
weapon_bone 0.000000 0.000000 0.000000 0.000000 0.000000 0.000000 10.000000 
Bip01_Head 0.000000 0.000000 0.000000 0.000000 0.000000 0.000000 10.000000 
eye_left_bone 0.000000 0.000000 0.000000 0.000000 0.000000 0.000000 10.000000 
eye_right_bone 0.000000 0.000000 0.000000 0.000000 0.000000 0.000000 10.000000 
L_forearm 0.000000 0.000000 0.000000 0.000000 0.000000 0.000000 10.000000 
L_front_hand 0.000000 0.000000 0.000000 0.000000 0.000000 0.000000 10.000000 
L_weapon_bone 0.000000 0.000000 0.000000 0.000000 0.000000 0.000000 10.000000 
L_front_hand01_01 0.000000 0.000000 0.000000 0.000000 0.000000 0.000000 10.000000 
L_front_hand02_01 0.000000 0.000000 0.000000 0.000000 0.000000 0.000000 10.000000 
L_front_hand03_01 0.000000 0.000000 0.000000 0.000000 0.000000 0.000000 10.000000 
L_front_hand01_02 0.000000 0.000000 0.000000 0.000000 0.000000 0.000000 10.000000 
L_front_hand02_02 0.000000 0.000000 0.000000 0.000000 0.000000 0.000000 10.000000 
L_front_hand03_02 0.000000 0.000000 0.000000 0.000000 0.000000 0.000000 10.000000 
R_forearm 0.000000 0.000000 0.000000 0.000000 0.000000 0.000000 10.000000 
R_front_hand 0.000000 0.000000 0.000000 0.000000 0.000000 0.000000 10.000000 
R_weapon_bone 0.000000 0.000000 0.000000 0.000000 0.000000 0.000000 10.000000 
R_front_hand01_01 0.000000 0.000000 0.000000 0.000000 0.000000 0.000000 10.000000 
R_front_hand02_01 0.000000 0.000000 0.000000 0.000000 0.000000 0.000000 10.000000 
R_front_hand03_01 0.000000 0.000000 0.000000 0.000000 0.000000 0.000000 10.000000 
R_front_hand01_02 0.000000 0.000000 0.000000 0.000000 0.000000 0.000000 10.000000 
R_front_hand02_02 0.000000 0.000000 0.000000 0.000000 0.000000 0.000000 10.000000 
R_front_hand03_02 0.000000 0.000000 0.000000 0.000000 0.000000 0.000000 10.000000 
null_rope01_connect 0.000000 0.000000 0.000000 0.000000 0.000000 0.000000 10.000000 
Rope1_Seg01 0.000000 0.000000 0.000000 0.000000 0.000000 0.000000 10.000000 
Rope1_Seg02 0.000000 0.000000 0.000000 0.000000 0.000000 0.000000 10.000000 
Rope1_Seg03 0.000000 0.000000 0.000000 0.000000 0.000000 0.000000 10.000000 
Rope1_Seg04 0.000000 0.000000 0.000000 0.000000 0.000000 0.000000 10.000000 
Rope1_Seg05 0.000000 0.000000 0.000000 0.000000 0.000000 0.000000 10.000000 
Rope1_Seg06 0.000000 0.000000 0.000000 0.000000 0.000000 0.000000 10.000000 
Rope1_Seg07 0.000000 0.000000 0.000000 0.000000 0.000000 0.000000 10.000000 
Rope1_Seg09 0.000000 0.000000 0.000000 0.000000 0.000000 0.000000 10.000000 
L_mid_hand01 0.000000 0.000000 0.000000 0.000000 0.000000 0.000000 10.000000 
L_mid_hand02 0.000000 0.000000 0.000000 0.000000 0.000000 0.000000 10.000000 
L_mid_hand03 0.000000 0.000000 0.000000 0.000000 0.000000 0.000000 10.000000 
null_rope02_connect 0.000000 0.000000 0.000000 0.000000 0.000000 0.000000 10.000000 
Rope2_Seg01 0.000000 0.000000 0.000000 0.000000 0.000000 0.000000 10.000000 
Rope2_Seg02 0.000000 0.000000 0.000000 0.000000 0.000000 0.000000 10.000000 
Rope2_Seg03 0.000000 0.000000 0.000000 0.000000 0.000000 0.000000 10.000000 
Rope2_Seg04 0.000000 0.000000 0.000000 0.000000 0.000000 0.000000 10.000000 
Rope2_Seg05 0.000000 0.000000 0.000000 0.000000 0.000000 0.000000 10.000000 
Rope2_Seg06 0.000000 0.000000 0.000000 0.000000 0.000000 0.000000 10.000000 
Rope2_Seg07 0.000000 0.000000 0.000000 0.000000 0.000000 0.000000 10.000000 
Rope2_Seg09 0.000000 0.000000 0.000000 0.000000 0.000000 0.000000 10.000000 
R_mid_hand01 0.000000 0.000000 0.000000 0.000000 0.000000 0.000000 10.000000 
R_mid_hand02 0.000000 0.000000 0.000000 0.000000 0.000000 0.000000 10.000000 
R_mid_hand03 0.000000 0.000000 0.000000 0.000000 0.000000 0.000000 10.000000 
spine02 0.000000 0.000000 0.000000 0.000000 0.000000 0.000000 10.000000 
spine03 0.000000 0.000000 0.000000 0.000000 0.000000 0.000000 10.000000 
pelvis 0.000000 0.000000 0.000000 0.000000 0.000000 0.000000 10.000000 
null_rope03_connect 0.000000 0.000000 0.000000 0.000000 0.000000 0.000000 10.000000 
null_rope04_connect 0.000000 0.000000 0.000000 0.000000 0.000000 0.000000 10.000000 
Rope3_Seg01 0.000000 0.000000 0.000000 0.000000 0.000000 0.000000 10.000000 
Rope3_Seg02 0.000000 0.000000 0.000000 0.000000 0.000000 0.000000 10.000000 
Rope3_Seg03 0.000000 0.000000 0.000000 0.000000 0.000000 0.000000 10.000000 
Rope3_Seg04 0.000000 0.000000 0.000000 0.000000 0.000000 0.000000 10.000000 
Rope3_Seg05 0.000000 0.000000 0.000000 0.000000 0.000000 0.000000 10.000000 
Rope3_Seg06 0.000000 0.000000 0.000000 0.000000 0.000000 0.000000 10.000000 
Rope3_Seg07 0.000000 0.000000 0.000000 0.000000 0.000000 0.000000 10.000000 
Rope3_Seg08 0.000000 0.000000 0.000000 0.000000 0.000000 0.000000 10.000000 
Rope3_Seg09 0.000000 0.000000 0.000000 0.000000 0.000000 0.000000 10.000000 
R_rear_hand01 0.000000 0.000000 0.000000 0.000000 0.000000 0.000000 10.000000 
R_rear_hand02 0.000000 0.000000 0.000000 0.000000 0.000000 0.000000 10.000000 
R_rear_hand03 0.000000 0.000000 0.000000 0.000000 0.000000 0.000000 10.000000 
Rope4_Seg01 0.000000 0.000000 0.000000 0.000000 0.000000 0.000000 10.000000 
Rope4_Seg02 0.000000 0.000000 0.000000 0.000000 0.000000 0.000000 10.000000 
Rope4_Seg03 0.000000 0.000000 0.000000 0.000000 0.000000 0.000000 10.000000 
Rope4_Seg04 0.000000 0.000000 0.000000 0.000000 0.000000 0.000000 10.000000 
Rope4_Seg05 0.000000 0.000000 0.000000 0.000000 0.000000 0.000000 10.000000 
Rope4_Seg06 0.000000 0.000000 0.000000 0.000000 0.000000 0.000000 10.000000 
Rope4_Seg07 0.000000 0.000000 0.000000 0.000000 0.000000 0.000000 10.000000 
Rope4_Seg08 0.000000 0.000000 0.000000 0.000000 0.000000 0.000000 10.000000 
Rope4_Seg09 0.000000 0.000000 0.000000 0.000000 0.000000 0.000000 10.000000 
L_rear_hand01 0.000000 0.000000 0.000000 0.000000 0.000000 0.000000 10.000000 
L_rear_hand02 0.000000 0.000000 0.000000 0.000000 0.000000 0.000000 10.000000 
L_rear_hand03 0.000000 0.000000 0.000000 0.000000 0.000000 0.000000 10.000000 
#Beginning of Data. Separated by tabs
#Fr	Tx	Ty	Tz	Rx	Ry	Rz	SF
[MASTER]
27 -0.000892 5989.085938 0.000000 0.001660 0.001660 0.001660 5989.085938
28 -0.000932 6253.298828 0.000000 0.001660 0.001660 0.001660 6253.298828
[root]
27 -166.934021 458.557129 1629.575562 -101.098946 -0.176545 -76.500954 1701.075562
28 -167.744553 457.402802 1629.561401 -100.870239 -0.413893 -76.838104 1700.830933
[chest]
27 -84.512650 -34.090519 0.000000 0.917588 0.472397 -177.420853 91.129311
28 -84.512650 -34.090519 0.000000 -0.928447 1.000902 -177.165512 91.129311
[L_mid_tent01]
27 27.299280 22.178846 -249.918777 -22.745104 42.823223 21.003059 252.381744
28 27.299273 22.178896 -249.918808 -22.679701 46.761719 21.850788 252.381775
[R_mid_tent01]
27 23.228794 24.509907 226.238495 156.315247 -28.100899 91.240639 228.744751
28 23.228794 24.509907 226.238495 166.101364 -18.246548 77.742256 228.744751
[spine01]
27 -0.361383 -0.195265 0.000000 0.236695 0.096724 20.649004 0.410763
28 -0.361383 -0.195265 0.000000 0.213428 0.087472 20.775305 0.410763
[Bip01_Neck]
27 165.484543 71.581718 0.000119 175.896118 1.177290 24.871183 180.302734
28 165.484543 71.581718 0.000119 175.896118 1.177290 24.871183 180.302734
[L_humerus]
27 -13.983130 -135.272980 -120.471481 -4.157102 67.212349 85.343170 181.680161
28 -13.983130 -135.272980 -120.471481 -4.275658 67.454895 85.216568 181.680161
[R_humerus]
27 -13.983309 -135.273102 125.287651 77.197586 -40.361855 11.813342 184.909012
28 -13.983309 -135.273102 125.287651 78.441132 -47.544144 10.155165 184.909012
[weapon_bone]
27 235.964890 -300.705902 0.000000 0.000000 -89.951546 -128.212341 382.234833
28 235.964890 -300.705902 0.000000 0.000000 -89.951546 -128.212341 382.234833
[Bip01_Head]
27 226.857910 203.997208 -10.101549 -46.800961 9.476991 -58.974346 305.256317
28 228.632217 205.955063 -10.388795 -46.670269 10.810086 -57.688244 307.893005
[eye_left_bone]
27 -24.626970 125.451866 -64.772606 0.000000 -90.000000 -99.840431 143.318359
28 -24.626970 125.451866 -64.772606 0.000000 -90.000000 -99.840431 143.318359
[eye_right_bone]
27 -24.626970 125.451866 64.327362 0.000000 -89.960434 80.159386 143.117676
28 -24.626970 125.451866 64.327362 0.000000 -89.960434 80.159386 143.117676
[L_forearm]
27 322.776093 0.000000 -0.000119 0.000328 -0.002324 -106.056412 322.776093
28 322.776093 0.000000 -0.000119 0.000333 -0.002323 -106.330261 322.776093
[L_front_hand]
27 241.149185 -0.042021 -3.300071 -178.667953 -1.835447 -27.422350 241.171753
28 241.149185 -0.042021 -3.300071 -178.667953 -1.835447 -27.422350 241.171753
[L_weapon_bone]
27 156.183838 0.000000 0.000000 0.000014 0.000007 0.000001 156.183838
28 156.183838 0.000000 0.000000 0.000014 0.000007 0.000001 156.183838
[L_front_hand01_01]
27 86.095154 20.947098 -0.655860 -0.366594 -0.477154 75.385574 88.609184
28 86.095154 20.947098 -0.655860 -0.366594 -0.477154 75.385574 88.609184
[L_front_hand02_01]
27 86.935165 -11.437475 24.513514 154.403519 -59.888931 -61.371990 91.046425
28 86.935165 -11.437475 24.513514 154.403519 -59.888931 -61.371990 91.046425
[L_front_hand03_01]
27 86.637497 -14.123976 -20.424902 -153.913849 58.118122 -62.702866 90.126129
28 86.637497 -14.123976 -20.424902 -153.913849 58.118122 -62.702866 90.126129
[L_front_hand01_02]
27 71.020905 -0.000179 0.000030 0.000334 -0.002323 -106.379684 71.020905
28 71.020905 -0.000179 0.000030 0.000334 -0.002323 -106.379684 71.020905
[L_front_hand02_02]
27 71.020927 -0.000119 0.000060 0.000334 -0.002323 -106.379684 71.020927
28 71.020927 -0.000119 0.000060 0.000334 -0.002323 -106.379684 71.020927
[L_front_hand03_02]
27 71.020905 -0.000060 0.000060 0.000334 -0.002323 -106.379684 71.020905
28 71.020905 -0.000060 0.000060 0.000334 -0.002323 -106.379684 71.020905
[R_forearm]
27 322.776428 -0.000060 0.000030 -0.024579 -0.209982 6.206587 322.776428
28 322.776428 -0.000060 0.000030 -0.001384 -0.211026 -1.032197 322.776428
[R_front_hand]
27 238.847015 -0.006795 2.210259 75.960007 8.921104 -15.862157 238.857239
28 238.847015 -0.006795 2.210259 71.540878 10.578566 -18.966702 238.857239
[R_weapon_bone]
27 155.664093 0.002503 -0.000030 0.003487 0.001180 -90.988930 155.664078
28 155.664093 0.002503 -0.000030 0.003487 0.001180 -90.988930 155.664078
[R_front_hand01_01]
27 87.624611 14.231146 22.918642 -154.633499 -59.950619 61.746044 91.683487
28 87.624611 14.231146 22.918642 -154.633499 -59.950619 61.746044 91.683487
[R_front_hand02_01]
27 89.356956 14.367283 -19.491137 154.602661 58.302849 63.744389 92.579636
28 89.356956 14.367283 -19.491137 154.602661 58.302849 63.744389 92.579636
[R_front_hand03_01]
27 87.286232 -22.307278 -0.143439 0.162155 -0.423168 -75.767921 90.091743
28 87.286232 -22.307278 -0.143439 0.162155 -0.423168 -75.767921 90.091743
[R_front_hand01_02]
27 71.020905 0.000060 0.000119 0.002323 -0.000334 106.381714 71.020905
28 71.020905 0.000060 0.000119 0.002323 -0.000334 106.381714 71.020905
[R_front_hand02_02]
27 71.020844 -0.000030 -0.000119 0.002323 -0.000334 106.381714 71.020836
28 71.020844 -0.000030 -0.000119 0.002323 -0.000334 106.381714 71.020836
[R_front_hand03_02]
27 71.020905 0.000000 0.000030 0.002323 -0.000334 106.381714 71.020905
28 71.020905 0.000000 0.000030 0.002323 -0.000334 106.381714 71.020905
[null_rope01_connect]
27 328.732483 0.000000 -0.000238 -156.369278 -39.833378 -134.466568 328.732483
28 328.732483 0.000000 -0.000238 -153.359055 -37.109177 -138.634171 328.732483
[Rope1_Seg01]
27 0.000000 0.000000 0.000000 80.540291 0.922361 -136.194885 0.000000
28 0.000000 0.000000 0.000000 85.859314 4.771380 -136.802338 0.000000
[Rope1_Seg02]
27 139.999863 -0.000179 0.000000 12.292028 -12.842192 0.725417 139.999863
28 139.999863 -0.000179 0.000000 14.206804 -11.954183 -0.300784 139.999863
[Rope1_Seg03]
27 139.999924 0.000060 -0.000060 8.457693 -32.760010 10.567727 139.999924
28 139.999924 0.000060 -0.000060 11.462684 -29.726788 7.637854 139.999924
[Rope1_Seg04]
27 139.999924 -0.000060 -0.000119 -6.248650 -34.111286 21.645489 139.999924
28 139.999924 -0.000060 -0.000119 -5.075045 -34.695751 22.684246 139.999924
[Rope1_Seg05]
27 139.999832 0.000119 -0.000060 -8.565541 -23.005733 11.349020 139.999832
28 139.999832 0.000119 -0.000060 -6.205680 -21.862803 10.503010 139.999832
[Rope1_Seg06]
27 139.999954 0.000119 -0.000060 -22.192629 -24.443102 7.577045 139.999954
28 139.999954 0.000119 -0.000060 -16.159666 -23.922417 6.397304 139.999954
[Rope1_Seg07]
27 139.999985 0.000060 0.000000 -19.424946 -11.708852 -0.700911 139.999985
28 139.999985 0.000060 0.000000 -16.241764 -13.706704 0.125310 139.999985
[Rope1_Seg09]
27 121.602913 0.000119 -0.000089 -89.793175 -1.359789 0.847147 121.602913
28 121.602913 0.000119 -0.000089 -89.793175 -1.359789 0.847147 121.602913
[L_mid_hand01]
27 103.859421 1.038730 8.195221 114.518707 -53.313858 -20.620613 104.187431
28 103.859421 1.038730 8.195221 114.518654 -53.313984 -20.620514 104.187431
[L_mid_hand02]
27 105.572853 -4.139662 -10.864139 -155.067673 38.166626 -52.448818 106.211075
28 105.572853 -4.139662 -10.864139 -155.067673 38.166634 -52.448826 106.211075
[L_mid_hand03]
27 104.641464 17.579376 -3.913581 -10.970130 15.317461 57.626949 106.179977
28 104.641464 17.579376 -3.913581 -10.970130 15.317461 57.626949 106.179977
[null_rope02_connect]
27 328.732849 0.000179 -0.000119 -115.095543 49.588997 64.355354 328.732849
28 328.732849 0.000179 -0.000119 -97.347496 59.153702 69.869514 328.732849
[Rope2_Seg01]
27 0.000067 0.000450 0.000099 92.876472 13.444984 -58.656143 0.000466
28 0.000070 0.000465 0.000097 73.466194 8.052015 -56.089672 0.000480
[Rope2_Seg02]
27 139.999741 -0.000060 -0.000119 8.028012 4.710807 -3.821677 139.999756
28 139.999741 -0.000060 -0.000119 -8.339445 7.688802 -1.991009 139.999756
[Rope2_Seg03]
27 140.000107 0.000030 0.000000 126.846733 11.639430 -12.835035 140.000107
28 140.000107 0.000030 0.000000 -146.293167 18.656696 -2.110415 140.000107
[Rope2_Seg04]
27 139.999802 0.000000 -0.000060 33.196510 -68.489288 -12.308073 139.999802
28 139.999802 0.000000 -0.000060 -23.445332 -35.412460 35.397354 139.999802
[Rope2_Seg05]
27 139.999985 -0.000060 0.000119 -3.415810 -29.915140 12.209828 139.999985
28 139.999985 -0.000060 0.000119 -4.240817 -25.800797 15.374259 139.999985
[Rope2_Seg06]
27 139.999893 -0.000030 -0.000119 -0.785477 -11.563934 4.675769 139.999893
28 139.999893 -0.000030 -0.000119 -0.812036 -13.103966 10.364088 139.999893
[Rope2_Seg07]
27 139.999893 0.000060 -0.000060 -1.312582 -13.247371 5.219687 139.999893
28 139.999893 0.000060 -0.000060 0.471565 -13.991285 11.068009 139.999893
[Rope2_Seg09]
27 121.338966 0.000089 -0.000060 136.879395 0.546403 -1.506368 121.338966
28 121.338966 0.000089 -0.000060 136.879395 0.546403 -1.506368 121.338966
[R_mid_hand01]
27 104.680779 11.144459 -10.335981 -37.864319 31.078991 36.311810 105.778534
28 104.680779 11.144459 -10.335981 -38.620110 30.064602 34.822529 105.778534
[R_mid_hand02]
27 104.070427 2.443552 8.231699 70.765930 -41.145245 13.465270 104.424065
28 104.070427 2.443552 8.231699 71.221657 -39.603447 12.765283 104.424065
[R_mid_hand03]
27 106.028137 -11.221827 -5.996406 -169.605835 11.984279 -45.843296 106.788818
28 106.028137 -11.221827 -5.996406 -169.274506 11.687648 -44.202805 106.788818
[spine02]
27 129.756927 0.001550 0.000119 -0.254289 -14.054245 -4.313314 129.756927
28 129.756927 0.001550 0.000119 -0.184164 -13.521109 -4.778936 129.756927
[spine03]
27 78.581558 0.088441 -5.214715 1.860783 3.715398 16.735395 78.754440
28 78.584503 0.087794 -5.186012 1.852997 3.699327 16.665777 78.755486
[pelvis]
27 169.435242 0.051022 0.000000 -0.057957 -0.272081 10.438375 169.435257
28 169.435242 0.051022 0.000000 -0.057497 -0.258470 10.779030 169.435257
[null_rope03_connect]
27 -1.257226 -2.466202 137.391083 108.428429 -65.855507 -61.757019 137.418976
28 -1.257226 -2.466202 137.391083 108.982803 -66.675575 -61.969337 137.418976
[null_rope04_connect]
27 -1.259640 -2.480268 -137.844437 108.428429 -65.855507 -61.757019 137.872513
28 -1.259640 -2.480268 -137.844437 108.982803 -66.675575 -61.969337 137.872513
[Rope3_Seg01]
27 0.000023 -0.000440 0.000000 167.568542 -58.136482 -20.826704 0.000441
28 0.000021 -0.000456 0.000000 -165.829803 -57.701397 -45.748093 0.000456
[Rope3_Seg02]
27 139.999924 -0.000119 0.000060 -7.462053 -0.257342 -12.256717 139.999924
28 139.999924 -0.000119 0.000060 -2.514979 -1.333471 -8.818513 139.999924
[Rope3_Seg03]
27 139.999924 -0.000119 0.000119 -20.853783 1.859755 -17.163784 139.999924
28 139.999924 -0.000119 0.000119 -6.851480 -1.449595 -13.919302 139.999924
[Rope3_Seg04]
27 139.999924 0.000119 0.000000 -45.077137 6.286122 -18.952259 139.999924
28 139.999924 0.000119 0.000000 -22.762100 -1.070207 -20.715130 139.999924
[Rope3_Seg05]
27 139.999924 -0.000238 0.000060 -30.174126 13.858743 -5.680240 139.999924
28 139.999924 -0.000238 0.000060 -54.709568 5.092632 -19.456177 139.999924
[Rope3_Seg06]
27 139.999893 -0.000119 -0.000060 -5.099183 11.585019 8.345052 139.999893
28 139.999893 -0.000119 -0.000060 -24.893438 16.601013 0.462669 139.999893
[Rope3_Seg07]
27 139.999771 0.000060 -0.000119 1.080416 10.102592 13.778985 139.999771
28 139.999771 0.000060 -0.000119 -1.831254 16.872040 16.587208 139.999771
[Rope3_Seg08]
27 139.999985 -0.000060 0.000000 0.138765 6.830192 7.029930 139.999985
28 139.999985 -0.000060 0.000000 0.179890 11.496986 11.706257 139.999985
[Rope3_Seg09]
27 90.185997 -0.000179 -0.000060 -24.489500 -1.359427 -0.848001 90.185997
28 90.185997 -0.000179 -0.000060 36.937958 -1.357603 -0.848002 90.185997
[R_rear_hand01]
27 103.366196 -6.073594 -10.757982 -177.714203 24.565960 -73.910950 104.101845
28 103.366196 -6.073594 -10.757982 -177.714203 24.565960 -73.910950 104.101845
[R_rear_hand02]
27 100.509819 12.039542 -7.992327 -12.874829 36.868488 72.167213 101.543350
28 100.509819 12.039542 -7.992327 -12.874829 36.868488 72.167213 101.543350
[R_rear_hand03]
27 101.539970 5.215704 5.435467 71.484581 -71.816628 21.513813 101.819031
28 101.539970 5.215704 5.435467 71.484581 -71.816628 21.513813 101.819031
[Rope4_Seg01]
27 0.000069 -0.000824 0.000000 46.716721 -1.772621 -110.908516 0.000827
28 0.000068 -0.000860 0.000000 43.513908 11.531938 -117.731743 0.000863
[Rope4_Seg02]
27 139.999985 0.000060 0.000119 3.751449 39.847858 1.925106 139.999985
28 139.999985 0.000060 0.000119 1.236867 33.854279 0.321337 139.999985
[Rope4_Seg03]
27 139.999924 0.000000 -0.000238 20.777252 36.011837 -1.270071 139.999924
28 139.999924 0.000000 -0.000238 7.461222 24.753149 -0.180295 139.999924
[Rope4_Seg04]
27 139.999985 0.000000 0.000119 29.965614 18.576298 -5.714367 139.999985
28 139.999985 0.000000 0.000119 10.740131 15.390778 -2.708937 139.999985
[Rope4_Seg05]
27 139.999802 -0.000060 -0.000119 39.150322 12.300875 -12.520791 139.999802
28 139.999802 -0.000060 -0.000119 10.633933 8.761374 -3.481372 139.999802
[Rope4_Seg06]
27 139.999924 0.000000 0.000060 17.445564 0.562776 -10.504639 139.999924
28 139.999924 0.000000 0.000060 7.857067 4.541182 -2.832094 139.999924
[Rope4_Seg07]
27 139.999802 0.000000 0.000000 7.373024 -1.581409 -6.159766 139.999802
28 139.999802 0.000000 0.000000 6.123552 2.781330 -2.321865 139.999802
[Rope4_Seg08]
27 139.999924 0.000000 0.000119 0.384339 -0.729179 -1.835757 139.999924
28 139.999924 0.000000 0.000119 2.076807 1.383107 -1.432622 139.999924
[Rope4_Seg09]
27 90.185791 0.000060 0.000060 -135.617828 2.228885 0.850567 90.185791
28 90.185791 0.000060 0.000060 -135.617828 2.228885 0.850567 90.185791
[L_rear_hand01]
27 101.696655 -8.392275 -7.654577 -19.915020 -33.950905 119.950104 102.329041
28 101.696655 -8.392275 -7.654577 -19.915020 -33.950905 119.950104 102.329041
[L_rear_hand02]
27 102.726799 -1.568258 5.773216 77.862221 61.878510 165.399200 102.900848
28 102.726799 -1.568258 5.773216 77.862221 61.878510 165.399200 102.900848
[L_rear_hand03]
27 104.552910 9.721220 -10.420293 -173.099182 -23.740307 -117.327896 105.519653
28 104.552910 9.721220 -10.420293 -173.099182 -23.740307 -117.327896 105.519653
